<?xml version="1.0" encoding="UTF-8" standalone="no"?>
<svg
   version="1.1"
   viewBox="0 0 1600 1131"
   width="1600"
   height="1131"
   id="svg326"
   sodipodi:docname="bg-svg.svg"
   inkscape:version="1.1.2 (0a00cf5339, 2022-02-04)"
   xmlns:inkscape="http://www.inkscape.org/namespaces/inkscape"
   xmlns:sodipodi="http://sodipodi.sourceforge.net/DTD/sodipodi-0.dtd"
   xmlns="http://www.w3.org/2000/svg"
   xmlns:svg="http://www.w3.org/2000/svg">
  <defs
     id="defs330" />
  <sodipodi:namedview
     id="namedview328"
     pagecolor="#ffffff"
     bordercolor="#666666"
     borderopacity="1.0"
     inkscape:pageshadow="2"
     inkscape:pageopacity="0.0"
     inkscape:pagecheckerboard="0"
     showgrid="false"
     inkscape:zoom="0.69761273"
     inkscape:cx="857.92586"
     inkscape:cy="728.91445"
     inkscape:window-width="1920"
     inkscape:window-height="988"
     inkscape:window-x="1920"
     inkscape:window-y="0"
     inkscape:window-maximized="1"
     inkscape:current-layer="svg326" />
  <path
     d="M 16.825398,12.969346 H 1590.5845 V 1115.4511 H 16.825398 Z"
     fill="#2d581a"
     id="path2"
     style="stroke-width:0.979183" />
  <path
     d="m0 0 4 1 28 20 17 13 17 12 14 10 15 11 17 12 10 8 10 7 11 8 14 10 16 12 18 13 10 7 11-1 25-5 8 16 13 27 6 14 8 16 8 18 10 21 6 12 12 14 9 11 12 14 6 8 13 15 11 14 11 13 15 4 8 3 25 7 7 2 22 14 13 8 9 5 16 10 14 9 9 7 14 12 10 7v2l4 2 13 11 6 4 9 8 8 7 13 10 7 5v2l4 2 17 14 11 9 13 10v2l6 3v2l4 2 11 8 3 4 5 3 8 7 9 7v2l5 2 13 11 10 8 22 18 13 11 8 6 5 5 5 3 15 13 13 8 64 32 5 12 8 20 5 11 12 31 7 16 6 16 5 11 9 22 1 4 5 2 13 9 14 10 10 8 8 6 17 12 2 2 6 2 5 5 39 30 11 8 8 5v2l5 2 2 4-11 7-14 10-13 9-19 13-10 7-5 4h-2l-1-3-1-20-16 6-19 7-12 5-26 10-5-3-13-12-8-7-8-6-7 3-12 9h-2v2l-3 2-12-1-13-2-15-1-7 11-4-4-7-12-7-11-6-10v-2h-2l-6-10-8-13-12-20-3-4-5-1-2 4-5 6-5 4-5-2-18-10-12-5-9 1-22 7-4 1-18-27-3-1-15 6-22 8-4-1-6-9v-2h-2l-11-16-1-2h-27l-10 1-3 1v2h-2v2l-10 7-12 8-10 8-6 4-5 11-8 19-4 11 6 10 10 15 3 6 10 15 6 10v4l-8 8h-2v2h-2v2l-7 6-5 5-13 12-4 4h-2v2l-8 7-8 8-8 7-4 2-3-74-18-8-30-13-23-10-34-15-23-10-25-11-21-9-25-11-19-8-44-9-22-4-54-11-26-5-12-3-12-11-5-4v-2l-3-1v-2h2l2-4 10-9 4-4-7-14-15-14-8-7-12-11-8-7-16-15-11-9-5-4-15-8-46-23-22-1-41-1-14-6-15-7-11-5-16-8-5-2-9-1-35 14-17 6-5-1-16 7-5 4-9 16-3 5-8-1-22-6-3-3-6-20-16-45-1-7 11-32v-5l-35-35-7-8-2-5-6-56 1-7 16-34 13-28 18-45 4-11 10-82 3-17 7-25 4-15 12-42 4-16 13-47 3-8 63-15 14-3 18-5 15-3 59-14 9-2 33-14 20-8 25-11 10-4h2v-31l11-10z"
     fill="#ACC779"
     id="path4"
     transform="translate(485,37)" />
  <path
     transform="translate(476,86)"
     d="m0 0 5 1 7 2 41 1 11 1 4 3 3 7v43l3 36 4 36 2 11 2 18 4 18 1 25v13l-1 20-4 14-5 13-2 7 1 9 3 11 7 16 6 11-1 2-5-8-5-10v-2l-5 1-3 6-11 4-9 9-9 5-1 2h-2l-2 5-4 8-2 17v5l8 16v2h3l3 8 5 6 9 6 4 9 1 1h12l10-4 11-7 9-6 12-11 4-5 5-1-3-7-8-11-11-13-4-5v-2h-2l-6-10 1-2 9 12v2h2l6 8 9 11 9 12 5 6h4v-2l8-7 16-12 4-1 19-13 4-3h2l-2-10v-9l1-12 4-15 7-7h2v-2l5-4 2 1-5 5-8 7-3 9-1 7-1 9v12l1 7 12-3 10-9 8-6 1-43 1-7-11 9h-3l14-13 8-18 3-11 2-17v-20l-3-16-4-22-2-17v-20l2-8 5-8-1-6-1-4 4-2 4 8 3 9 11 29 8 20 6 16 11 28 13 33v2l11-7 7-4 2 3-9 7-7 5 1 7 5 14 8 19 3 9 7 7 25 1 10 2 9 3 4 5 1 2 1 25 6 20 5 12 14 27 12 22 13 20v2l7-2 17-10 10-8 8-7 5-10 6-9 10-19 4-5 3-8 4-1-1 5-6 11-5 7-8 16-7 10-3 5-12 11-18 11-6 2 5 5 2 3 2 12 14 3 17 3 45 15 18 4 19 10 10 5 9 2 6 2 6 1 6 3 21 5 8 1 10 2 14 3 12 2 20 7 8 3 13 4 9 4 15 7 18 11 1 2-6-2-12-7-12-5-8-4-10-3-12-5-14-4-12-4-17-3-12-3-22-3-36-11-6-4-26-13-30-8-36-12-15-2-2 17-1 40-10 23-6 9-2 4 5 2 19 13 14 9 3 3 10 4 11 4 13 3 27 3 15 4 7 3 14 9 6 7 4 6 4 4 7 11 5 6 8 7 5 4 7 4 8 6 17 12 12 9 14 8 13 10 9 9 10 7 9 7 8 7v2l5 2 9 5 14 10 10 9 13 8 11 9 9 6 9 7 7 5h4l6-9 5-9 7-8 6-9 7-14 3-1 2-4 5-7h2l2-5 7-11 6-11 9-21 6-13 4 2 12 29 10 25 7 17 5 12 4 9v2l5 2 13 9 14 10 10 8 8 6 17 12 2 2 6 2 5 5 39 30 11 8 8 5v2l5 2 2 4-11 7-14 10-13 9-19 13-10 7-5 4h-2l-1-3-1-20-16 6-19 7-12 5-26 10-5-3-13-12-8-7-8-6-7 3-12 9h-2v2l-3 2-12-1-13-2-15-1-7 11-4-4-7-12-7-11-6-10v-2h-2l-6-10-8-13-12-20-3-4-5-1-2 4-5 6-5 4-5-2-18-10-12-5-9 1-22 7-4 1-18-27-3-1-15 6-22 8-4-1-6-9v-2h-2l-11-16-1-2h-27l-10 1-3 1v2h-2v2l-10 7-12 8-10 8-6 4-5 11-8 19-4 11 6 10 10 15 3 6 10 15 6 10v4l-8 8h-2v2h-2v2l-7 6-5 5-13 12-4 4h-2v2l-8 7-8 8-8 7-4 2-3-74-18-8-30-13-23-10-34-15-23-10-25-11-21-9-25-11-19-8-44-9-22-4-44-9v-2h-3v-2h-6l-10-3-26-4-13-11-7-6 1-3h2l2-4h2l1-3 6-4 3-3-3-9-5-9-5-4-5-5-13-12-4-3v-2l-3-1v-2l-4-2-8-7v-2l-5-2-11-11-6-4-11-11v-14l2-23 6-11 14-19 1-2h2l9-18 3-9 4-16 2-21-15 8-11 6-16 9-16 8-9 5-9 6-17 8-21 8-14 7-17 8-7 3-8 5-7 4h-3v2l-12 5-2-1 5-4 10-5 5-3 16-9 12-5 15-8 12-5 20-7 15-8 16-10 16-8 14-8 10-5v-1h-65l-13 3-9 1h-9l-14-6h-9l-5 2h-14l-30-3-16 3-14 1-21 5h-19l-4-2v-2l-4-2-9-4-9-3-12-9-4-7-2-6v-7h3l5 12 4 6 5 3v2l4 1 13 5 9 6 6 3h7l19-5 35-4 21 1 15 1h13l5-2h9l10 5 3 1 13 1 19-4h72l9-5 1-2-1-43-2-16-1-7v-10l1-5-4-6-9-5h-12l-16 6-15 8-18 9-7-1-7-3-7-6 1-9-4-10-1-5v-9l4-10 5-9 1-4-8-2-6-4 3-1 7 3 20 1 3 1h12l7-3 12-2h8l4 5 3 6 3-1 2-9-3-5 1-9 8-16 5-11-9 1-26-8-14-5-9-3-25-11-12-3-16-8-7-5-19-19v-2h-2l-5-5-24-16-14-10-4-3v-2l-4-1-5-5v-2l-16 5-15 8-14 3-6 5-19 5-8 3-3 3-1-4 8-5 19-5 6-5 5-2 10-2 9-4 9-3 10-4 5-1-4-4-10-15v-3h-2l-7-16v-2l-3-1-1-5-6-12-8-15 1-5h2l1 7 8 16 6 11 6 12 7 15 8 11 7 8v2h2v2l4 2 8 7 14 10 12 7 7 6 3 3 8 6 10 11 6 5 4 4 10 6 16 7 31 12 18 7 15 5 10 3h12v-2l-2-5-4-2-7-8-9-10-6-11-3-14-12-35-5-11-10-35-5-25-6-19-6-17-2-7-4-11-4-12-4-5-5-11v-2h-2l-10-21-7-12-3-7-4-5-1-6h-2l-2-5-2-1-6-15-1-7 4 2-1 3 3 1 3 9v3h2l6 11 3 5 4 11 9 15 8 16 6 11 5 8 4 5v2h2v2h2l4 7 11 13 2 1v2l4 2 9 7v2h2l5 6-1 2-6-5-7-6-6-5-3-3-2-1v-2l-4-2-6-9-3-3v-2h-2l6 19 7 17 5 22 1 1 2 14 7 25 5 16 4 10 8 21 5 13 3 16 3 8 5 5 7 8 5 5 7 8 2-17 8-17 6-5 9-6 7-7 8-3 2-3 5-3 1-3-3-12-4-9-4-5-5-5-1-2 4 2 7 7 2-4 5-13 5-17v-56l-4-20-1-3-2-18-5-39-3-36-1-44v-3l-2-5-4-3-35-1-18-1-8-4z"
     fill="#ACC779"
     id="path6" />
  <path
     transform="translate(476,86)"
     d="m 0,0 5,1 7,2 41,1 11,1 4,3 3,7 v 43 l 3,36 4,36 2,11 2,18 4,18 1,25 v 13 l -1,20 -4,14 -5,13 -2,7 1,9 3,11 7,16 6,11 -1,2 -5,-8 -5,-10 v -2 l -5,1 -4.289473,5.14941 L 62,309 l -9,9 -9,5 -2.786055,1.09883 L 41,325 l -2,5 -4,8 -2,17 v 5 l 8,16 v 2 l 2.890185,2.37137 L 47,386 l 5,6 9,6 4,9 1,1 h 12 l 10,-4 11,-7 9,-6 12,-11 4,-5 5,-1 -3,-7 -8,-11 -11,-13 -4,-5 -0.78179,-1.43443 -0.87942,-1.37783 -5.59687,-9.31068 L 96,324 l 9,12 0.66709,1.13895 1.31227,1.72756 L 113,346 l 9,11 9,12 5,6 h 4 v -2 l 8,-7 16,-12 4,-1 19,-13 4,-3 h 2 l -2,-10 v -9 l 1,-12 4,-15 7,-7 h 2 v -2 l 5,-4 2,1 -5,5 -8,7 -3,9 -1,7 -1,9 v 12 l 1,7 12,-3 10,-9 8,-6 1,-43 1,-7 -11,9 h -3 l 14,-13 8,-18 3,-11 2,-17 v -20 l -3,-16 -4,-22 -2,-17 v -20 l 2,-8 5,-8 -1,-6 -1,-4 4,-2 4,8 3,9 11,29 8,20 6,16 11,28 13,33 v 2 l 11,-7 7,-4 2,3 -9,7 -7,5 1,7 5,14 8,19 3,9 7,7 25,1 10,2 9,3 4,5 1,2 1,25 6,20 5,12 14,27 12,22 13,20 v 2 l 7,-2 17,-10 10,-8 8,-7 5,-10 6,-9 10,-19 4,-5 3,-8 4,-1 -1,5 -6,11 -5,7 -8,16 -7,10 -3,5 -12,11 -18,11 -6,2 5,5 2,3 2,12 14,3 17,3 45,15 18,4 19,10 10,5 9,2 6,2 6,1 6,3 21,5 8,1 10,2 14,3 12,2 20,7 8,3 13,4 9,4 15,7 18,11 1,2 -6,-2 -12,-7 -12,-5 -8,-4 -10,-3 -12,-5 -14,-4 -12,-4 -17,-3 -12,-3 -22,-3 -36,-11 -6,-4 -26,-13 -30,-8 -36,-12 -15,-2 -2,17 -1,40 -10,23 -6,9 -2,4 5,2 19,13 14,9 -3,1 -11,-7 -15,-10 -10,-7 -4,2 -4,4 v 14 l 3,16 6,20 -2,2 -8,-26 -2,-23 -2,1 -24,1 -8,7 -10,10 -7,8 -15,16 -5,3 -7,-1 -10,-11 -9,-11 -3,-4 -1,14 -2,9 -3,22 1,11 5,19 3,18 1,9 3,11 2,11 v 30 l 1,16 4,31 7,42 2,11 v 17 l -3,3 -5,-2 -7,-14 -4,-9 -6,-11 -5,-6 -6,-12 -4,-5 -5,-9 -10,-16 -2,-9 -8,-20 -4,-27 -3,-10 -2,-4 -2,-10 -5,-11 -4,-12 -1,-7 h -2 l -2,9 -7,25 -9,35 -10,38 -4,17 -4,15 -5,20 -3,3 -2,-2 16,-64 5,-18 8,-32 9,-31 5,-18 1,-10 -6,-17 -4,-8 -2,-7 -12,8 h -2 v 2 l -10,7 -5,4 -2,3 h -2 l 2,-4 5,-6 9,-6 11,-8 9,-6 10,-2 3,-3 -11,-11 -7,-15 -9,-24 -9,-26 -7,-7 -6,-8 -7,-11 -2,-5 -6,-9 -23,10 -3,1 -5.07215,3.22887 -4.71094,1.49291 -2.62351,0.84806 L 145,513 l -16,4 -13,5 -9,2 -20,7 -6,3 -24,8 -14,7 -2,7 -1,15 -6,22 -4,10 -7,12 -11,14 -10,15 -3,17 -1,18 -1,7 -2,-1 v -14 l 2,-23 6,-11 14,-19 1,-2 h 2 l 9,-18 3,-9 4,-16 2,-21 -15,8 -11,6 -16,9 -16,8 -9,5 -9,6 -17,8 -21,8 -14,7 -17,8 -7,3 -8,5 -7,4 h -3 v 2 l -12,5 -2,-1 5,-4 10,-5 5,-3 16,-9 12,-5 15,-8 12,-5 20,-7 15,-8 16,-10 16,-8 14,-8 10,-5 v -1 h -65 l -13,3 -9,1 h -9 l -14,-6 h -9 l -5,2 h -14 l -30,-3 -16,3 -14,1 -21,5 h -19 l -4,-2 v -2 l -4,-2 -9,-4 -9,-3 -12,-9 -4,-7 -2,-6 v -7 h 3 l 5,12 4,6 5,3 v 2 l 4,1 13,5 9,6 6,3 h 7 l 19,-5 35,-4 21,1 15,1 h 13 l 5,-2 h 9 l 10,5 3,1 13,1 19,-4 h 72 l 9,-5 1,-2 -1,-43 -2,-16 -1,-7 v -10 l 1,-5 -4,-6 -9,-5 H 10 l -16,6 -15,8 -18,9 -7,-1 -7,-3 -7,-6 1,-9 -4,-10 -1,-5 v -9 l 4,-10 5,-9 1,-4 -8,-2 -6,-4 3,-1 7,3 20,1 3,1 h 12 l 7,-3 12,-2 h 8 l 4,5 3,6 3,-1 2,-9 -3,-5 1,-9 8,-16 5,-11 -9,1 -26,-8 -14,-5 -9,-3 -25,-11 -12,-3 -16,-8 -7,-5 -19,-19 v -2 h -2 l -5,-5 -24,-16 -14,-10 -4,-3 v -2 l -4,-1 -2.88277,-4.33309 L -168,257 l -16,5 -15,8 -14,3 -6,5 -19,5 -8,3 -3,3 -1,-4 8,-5 19,-5 6,-5 5,-2 10,-2 9,-4 9,-3 10,-4 5,-1 -4,-4 -10,-15 v -3 h -2 l -7,-16 v -2 l -2.39486,-1.18192 L -196,208 l -6,-12 -8,-15 1,-5 h 2 l 1,7 8,16 6,11 6,12 7,15 8,11 7,8 v 2 h 2 v 2 l 4,2 8,7 14,10 12,7 7,6 3,3 8,6 10,11 6,5 4,4 10,6 16,7 31,12 18,7 15,5 10,3 h 12 v -2 l -2,-5 -4,-2 -7,-8 -9,-10 -6,-11 -3,-14 -12,-35 -5,-11 -10,-35 -5,-25 -6,-19 -6,-17 -2,-7 -4,-11 -4,-12 -4,-5 -5,-11 v -2 h -2 l -10,-21 -7,-12 -3,-7 -4,-5 -1,-6 h -2 l -2,-5 -2,-1 -6,-15 -1,-7 3.16028,-0.84937 v 0 L -102,46 l 3,9 v 3 c 1.648008,1.585899 8.35321,11.588684 11,16 l 4,11 9,15 8,16 6,11 5,8 4,5 v 2 -2 l 2,4 h 2 l 4,7 11,13 0.874394,1.39582 L -31,167 l 1.988772,1.81338 9,7 v 2 0 l 9.092824,6.89283 L -12,186 l -6,-5 -7,-6 -6,-5 -3,-3 -0.911268,-1.53267 L -36,164 -39.274239,161.46263 -46,153 -48.337115,149.64315 -49,148 h -2 l 6,19 7,17 5,22 1,1 2,14 7,25 5,16 4,10 8,21 5,13 3,16 3,8 5,5 7,8 5,5 7,8 2,-17 8,-17 6,-5 9,-6 7,-7 8,-3 2,-3 5,-3 1,-3 -3,-12 -4,-9 -4,-5 -5,-5 -1,-2 4,2 7,7 2,-4 5,-13 5,-17 V 178 L 79,158 78,155 76,137 71,98 68,62 67,18 V 15 L 65,10 61,7 26,6 8,5 0,1 Z"
     fill="#edfdd3"
     id="path8"
     sodipodi:nodetypes="cccccccccccccccccccccccccccccccccccccccccccccccccccccccccccccccccccccccccccccccccccccccccccccccccccccccccccccccccccccccccccccccccccccccccccccccccccccccccccccccccccccccccccccccccccccccccccccccccccccccccccccccccccccccccccccccccccccccccccccccccccccccccccccccccccccccccccccccccccccccccccccccccccccccccccccccccccccccccccccccccccccccccccccccccccccccccccccccccccccccccccccccccccccccccccccccccccccccccccccccccccccccccccccccccccccccccccccccccccccccccccccccccccccccccccccccccccccccccccccccccccccccccccccccccccccccccccccccccccccccccccccccccccccccccccccccccccccccccccccccccccccccccccccccccccccccccccccccccccccccccccccccccccccccccccccccccccccccccccccccccccccccccccc" />
  <path
     transform="translate(476,86)"
     d="m 0,0 5,1 7,2 41,1 11,1 4,3 3,7 v 43 l 3,36 4,36 2,11 2,18 4,18 1,25 v 13 l -1,20 -4,14 -5,13 -2,7 1,9 3,11 7,16 6,11 -1,2 -5,-8 -5,-10 v -2 l -5,1 -4.289473,5.14941 L 62,309 l -9,9 -9,5 -2.786055,1.09883 L 41,325 l -2,5 -4,8 -2,17 v 5 l 8,16 0.999111,1.01163 0.993228,1.61396 L 47,386 l 5,6 9,6 4,9 1,1 h 12 l 10,-4 11,-7 9,-6 12,-11 4,-5 5.035,-3.58815 L 126,367 l -8,-11 -11,-13 -4,-5 v -2 l -1.66121,-0.81226 -4.89537,-8.58447 L 96,324 l 9,12 v 2 l 1.97936,0.86651 L 113,346 l 9,11 9,12 5,6 h 4 v -2 l 8,-7 16,-12 4,-1 19,-13 4,-3 h 2 l -2,-10 v -9 l 1,-12 4,-15 7,-7 h 2 v -2 l 5,-4 2,1 -5,5 -8,7 -3,9 -1,7 -1,9 v 12 l 1,7 12,-3 10,-9 8,-6 1,-43 1,-7 -11,9 h -3 l 14,-13 8,-18 3,-11 2,-17 v -20 l -3,-16 -4,-22 -2,-17 v -20 l 2,-8 5,-8 -1,-6 -1,-4 4,-2 4,8 3,9 11,29 8,20 6,16 11,28 13,33 v 2 l 11,-7 7,-4 2,3 -9,7 -7,5 1,7 5,14 8,19 3,9 7,7 25,1 10,2 9,3 4,5 1,2 1,25 6,20 5,12 14,27 12,22 13,20 v 2 l 7,-2 17,-10 10,-8 8,-7 5,-10 6,-9 10,-19 4,-5 3,-8 4,-1 -1,5 -6,11 -5,7 -8,16 -7,10 -3,5 -12,11 -18,11 -6,2 5,5 2,3 2,12 14,3 17,3 45,15 18,4 19,10 10,5 9,2 6,2 6,1 6,3 21,5 8,1 10,2 14,3 12,2 20,7 8,3 13,4 9,4 15,7 18,11 1,2 -6,-2 -12,-7 -12,-5 -8,-4 -10,-3 -12,-5 -14,-4 -12,-4 -17,-3 -12,-3 -22,-3 -36,-11 -6,-4 -26,-13 -30,-8 -36,-12 -15,-2 -2,17 -1,40 -10,23 -6,9 -2,4 5,2 19,13 14,9 -3,1 -11,-7 -15,-10 -10,-7 -4,2 -4,3 v -3 l 3,-3 1,-3 5,-2 6,-10 9,-21 1,-39 3,-19 -10,-2 -3,-2 -3,-13 -6,-4 -18,1 1,-2 8,-2 -7,-12 -9,-15 -18,-34 -8,-16 -6,-17 -2,-9 -1,-24 -2,-4 -8,-4 -12,-1 3,10 2,6 12,-4 h 2 v 2 l -16,6 -1,1 v 7 l 4,16 v 3 l 11,-3 h 3 v 2 l -10,3 h -3 l 2,6 v 11 l -7,2 -1,2 h -4 l -8,-21 -11,-28 -5,-12 -6,-4 -4,-4 -2,-1 h -6 l -4,10 -7,14 -2,1 h -31 l -9,-2 -19,-7 -7,1 -10,9 -7,5 -9,2 6,9 12,16 3,25 2,15 4,17 v 6 l -2,-1 -6,-28 -3,-28 -2,-7 -10,-13 -7,-9 -4,2 -18,12 -8,5 -5,2 -8,6 h -2 v 2 h -2 v 2 l -8,7 v 2 l 16,7 4,4 h -4 l -1,8 1,4 -1,2 3,8 5,10 2,12 4,20 5,11 5,13 15,11 v 2 l -5,-2 -10,-8 -3,-3 -8,-20 -6,-10 -11,-9 -8,-4 v -2 l -5,-2 -8,-4 -2,-4 h -2 v -2 h -2 l -4,-5 -6,-3 -4,-4 v -2 l -6,-2 -5,-3 -1,3 -12,7 -3,1 H 61 l -10,3 -5,3 -3,6 -4,4 -7,1 -12,-6 v -2 l -9,-3 -1,-3 H 8 L 4.3215061,412.22207 2,409 h -9 l -8,2 -8,3 h -8 l -9,-3 h -10 l -11,22 v 10 l 3,10 2,5 1,8 6,6 v 2 l -4,-1 -7,-6 1,-9 -4,-10 -1,-5 v -9 l 4,-10 5,-9 1,-4 -8,-2 -6,-4 3,-1 7,3 20,1 3,1 h 12 l 7,-3 12,-2 h 8 l 4,5 3,6 3,-1 2,-9 -3,-5 1,-9 8,-16 5,-11 -9,1 -26,-8 -14,-5 -9,-3 -25,-11 -12,-3 -16,-8 -7,-5 -19,-19 v -2 h -2 l -5,-5 -24,-16 -14,-10 -4,-3 v -2 l -4,-1 -3.77751,-4.53419 L -168,257 l -16,5 -15,8 -14,3 -6,5 -19,5 -8,3 -3,3 -1,-4 8,-5 19,-5 6,-5 5,-2 10,-2 9,-4 9,-3 10,-4 5,-1 -4,-4 -10,-15 v -3 h -2 l -7,-16 v -2 l -2.39486,-1.18192 L -196,208 l -6,-12 -8,-15 1,-5 h 2 l 1,7 8,16 6,11 6,12 7,15 8,11 7,8 v 2 h 2 v 2 l 4,2 8,7 14,10 12,7 7,6 3,3 8,6 10,11 6,5 4,4 10,6 16,7 31,12 18,7 15,5 10,3 h 12 v -2 l -2,-5 -4,-2 -7,-8 -9,-10 -6,-11 -3,-14 -12,-35 -5,-11 -10,-35 -5,-25 -6,-19 -6,-17 -2,-7 -4,-11 -4,-12 -4,-5 -5,-11 v -2 h -2 l -10,-21 -7,-12 -3,-7 -4,-5 -1,-6 h -2 l -2,-5 -2,-1 -6,-15 -1,-7 4,2 -1,3 3,1 3,9 v 3 l 0.877763,2.908058 L -91,69 l 3,5 4,11 9,15 8,16 6,11 5,8 4,5 v 2 l 1.201467,0.41822 L -50,144 h 2 l 4,7 11,13 0.836122,1.46601 L -31,167 l 2.763175,2.49915 5.523544,4.70666 L -18,178 v 0 l 7.081596,6.70621 L -12,186 l -6,-5 -7,-6 -6,-5 -3,-3 -0.911268,-1.53267 L -36,164 -39.274239,161.46263 -46,153 -48.337115,149.64315 -49,148 h -2 l 6,19 7,17 5,22 1,1 2,14 7,25 5,16 4,10 8,21 5,13 3,16 3,8 5,5 7,8 5,5 7,8 2,-17 8,-17 6,-5 9,-6 7,-7 8,-3 2,-3 5,-3 1,-3 -3,-12 -4,-9 -4,-5 -5,-5 -1,-2 4,2 7,7 2,-4 5,-13 5,-17 V 178 L 79,158 78,155 76,137 71,98 68,62 67,18 V 15 L 65,10 61,7 26,6 8,5 0,1 Z"
     fill="#edfed3"
     id="path12"
     sodipodi:nodetypes="cccccccccccccccccccccccccccccccccccccccccccccccccccccccccccccccccccccccccccccccccccccccccccccccccccccccccccccccccccccccccccccccccccccccccccccccccccccccccccccccccccccccccccccccccccccccccccccccccccccccccccccccccccccccccccccccccccccccccccccccccccccccccccccccccccccccccccccccccccccccccccccccccccccccccccccccccccccccccccccccccccccccccccccccccccccccccccccccccccccccccccccccccccccccccccccccccccccccccccccccccccccccccccccccccccccccccccccccccccccccccccccccccccccccccccccccccccccccccccccccccccccccccccccccccccccccccccccccccccccccccccccccccccccccccccccccccccccccccccccccccccccccccccccccccccccccccc" />
  <path
     transform="translate(575,488)"
     d="M 0,0 4.1643465,-2.3975656 17.598843,9.8855471 15,9 V 9 L 17.598843,9.8855471 21,13 25,17 26.024917,18.140467 27,19 l 2,2 v 0 L 34.686931,25.735334 44,31 46.020386,32.505951 48,34 l 9,6 8,7 8,16 5,13 v 2 l 4,2 13,9 -2,2 v 0 l -5,2 -16,8 -3,2 -13,4 -13,1 -14,6 -15,4 -10,4 -16,5 -22,8 -16,6 -5,3 h -3 L -60,91 -60.269997,79.525404 -60.769409,71.703487 -64,76 -62,66 v -7 l -5,-4 -8,-5 -4,-2 -10,1 -12,5 -36,18 -5,1 -6,-1 -7,-8 -2,-11 -3,-7 -1,-5 V 31 l 4,-8 8,-15 h 10 l 9,3 h 8 l 10,-4 6,-1 h 9 l 4.779232,5.30272 L -91,14 -89.611508,14.99289 -88,16 l 6.249028,4.020714 1.627636,0.902304 L -79,22 -73.744279,24.005922 -67,27 l 7,-1 4,-4 3,-6 7,-4 8,-2 h 22 L -4,4 Z"
     fill="#adc87a"
     id="path14"
     sodipodi:nodetypes="cccccccccccccccccccccccccccccccccccccccccccccccccccccccccccccccccccccccccccccccccc" />
  <path
     transform="translate(779,389)"
     d="m 0,0 h 6 l 5,3 3,4 5,3 8,20 13,32 2,7 -5,10 v 10 l 1,9 -0.265952,3.49763 L 37,122 l -10,5 -14,5 -13,2 -15,4 -16,2 -9,1 -5,2 -5,1 v 0 l -16,-9 -8,-5 -2,-5 -3,-9 -5,-23 -3,-29 -2,-6 -13,-18 -4,-6 5,-2 7,-2 10,-9 7,-5 8,1 19,7 6,1 h 31 l 3,-3 8,-18 z"
     fill="#adc87a"
     id="path16"
     sodipodi:nodetypes="cccccccccccccccccccccccccccccccccccccccccc" />
  <path
     transform="translate(716,194)"
     d="m0 0 3 4 11 30 3 7 10 24 6 17 9 23 17 43 12 29 3 9-1 5-1 1-9 1-2 1-2 5-2 6-6 12-3 2h-12l-20-1-28-9-1-15 1-38 5-10 6-16 2-12 1-17v-12l-2-11-5-26-2-14v-24l3-9z"
     fill="#ADC87A"
     id="path18" />
  <path
     transform="translate(791,675)"
     d="m 0,0 h 2 v 10 l -3,16 -1,10 v 16 l 5,21 2,15 6,31 1,3 1,42 1,13 2,9 1,14 4,19 2,18 3,11 1,13 -1,7 h -3 l -10,-22 -7,-12 -9,-14 -4,-7 -8,-13 -9,-17 -3,-9 -6,-17 -6,-31 -6,-21 -6,-14 -4,-13 -1,-9 3,-6 9,-11 4,-4 2,-5 5,-5 10,-12 5,-3 8,-11 2,-2 2,-2 z"
     fill="#acc779"
     id="path20"
     sodipodi:nodetypes="cccccccccccccccccccccccccccccccccccccccccccc" />
  <path
     transform="translate(669,424)"
     d="m 0,0 4,2 10,13 7,10 3,22 2,17 4,22 -1,5 L 13,79 0,70 v -2 l -4,-1 -13,-8 -13,-5 1,1 11,5 6,3 3,3 7,3 1,3 5,2 13,10 13,9 4,6 2,23 v 17 l -5,10 -17,1 -10,3 H 1 l -5,-5 -11,-8 -8,-20 -3,-7 L -28,98 -30.851846,85.006837 -33,79 -36.243705,72.001584 -38,70 l -1,-5 1,-2 -1,-7 2,-4 2,-1 -8,-5 -11,-5 2,-4 5,-5 h 2 v -2 h 2 v -2 l 13,-9 4,-1 25,-17 z"
     fill="#acc779"
     id="path22"
     sodipodi:nodetypes="cccccccccccccccccccccccccccccccccccccccccccccccccccccccc" />
  <path
     transform="translate(778,566)"
     d="m 0,0 h 2 l 3,6 v 13 l -2,7 -6,15 -11,15 -7,9 -3.016722,5.906668 L -29,95 l -3,13 -9,22 -5,-3 -8,-9 -10,-23 -14,-40 -7,-8 -9,-12 -4,-13 -3,-3 -1,-5 11,-4 h 16 l 6,1 18,1 15,-7 8,-2 h 12 l 5,1 h 7 z"
     fill="#adc87a"
     id="path24"
     sodipodi:nodetypes="ccccccccccccccccccccccccccccccc" />
  <path
     transform="translate(715,180)"
     d="m 0,0 3,4 6,16 10,26 8,20 6,16 11,28 13,33 v 2 l 11,-7 7,-4 2,3 -9,7 -7,5 1,7 5,14 8,19 3,9 7,7 25,1 10,2 9,3 4,5 1,2 1,25 6,20 5,12 14,27 12,22 13,20 v 2 l 7,-2 17,-10 10,-8 8,-7 5,-10 6,-9 10,-19 4,-5 3,-8 4,-1 -1,5 -6,11 -5,7 -8,16 -7,10 -3,5 -12,11 -18,11 -6,2 5,5 2,3 2,12 14,3 17,3 45,15 18,4 19,10 10,5 9,2 6,2 6,1 6,3 21,5 8,1 10,2 14,3 12,2 20,7 8,3 13,4 9,4 15,7 18,11 1,2 -6,-2 -12,-7 -12,-5 -8,-4 -10,-3 -12,-5 -14,-4 -12,-4 -17,-3 -12,-3 -22,-3 -36,-11 -6,-4 -26,-13 -30,-8 -36,-12 -15,-2 -2,17 -1,40 -10,23 -6,9 -2,4 5,2 19,13 14,9 -3,1 -11,-7 -15,-10 -10,-7 -4,2 -4,3 v -3 l 3,-3 1,-3 5,-2 6,-10 9,-21 1,-39 3,-19 -10,-2 -3,-2 -3,-13 -6,-4 -18,1 1,-2 8,-2 -7,-12 -9,-15 -18,-34 -8,-16 -6,-17 -2,-9 -1,-24 -2,-4 -8,-4 -12,-1 3,10 2,6 12,-4 h 2 v 2 l -16,6 -1,1 v 7 l 4,16 v 3 l 11,-3 h 3 v 2 l -10,3 h -3 l 2,6 v 11 l -7,2 -1,2 h -4 l -8,-21 -11,-28 -5,-12 -6,-4 -4,-4 -2,-1 h -6 l -4,10 -7,14 -2,1 H 20 l -9,-2 -19,-7 -7,1 -10,9 -7,5 -9,2 6,9 12,16 3,25 2,15 4,17 v 6 l -2,-1 -6,-28 -3,-28 -2,-7 -10,-13 -7,-9 -4,2 -18,12 -8.357105,3.73305 L -79,266 l -8,6 h -2 v 2 h -2 v 2 l -8,7 -4,3 -4,-5 -3,-1 -3,-7 -8,-11 -11,-13 -4,-5 v -2 l -1.66121,-0.81226 -4.89537,-8.58447 L -143,230 l 9,12 v 2 l 1.23231,0.83343 L -126,252 l 9,11 9,12 5,6 h 4 v -2 l 8,-7 16,-12 4,-1 19,-13 4,-3 h 2 l -2,-10 v -9 l 1,-12 4,-15 7,-7 h 2 v -2 l 5,-4 2,1 -5,5 -8,7 -3,9 -1,7 -1,9 v 12 l 1,7 12,-3 10,-9 8,-6 1,-43 1,-7 -11,9 h -3 l 14,-13 8,-18 3,-11 2,-17 V 103 L -2,87 -6,65 -8,48 V 28 l 2,-8 5,-8 -1,-6 -1,-4 z m 1,14 -5,6 -2,8 v 24 l 6,36 2,7 1,8 v 14 l -2,23 -5,15 -5,11 -2,4 -1,43 1,10 28,9 20,1 h 12 l 4,-4 7,-14 1,-4 1,-3 2,-1 9,-1 2,-2 -1,-6 L 70,186 55,150 45,124 31,88 25,72 18,55 12,39 2,14 Z"
     fill="#f0fedb"
     id="path26"
     sodipodi:nodetypes="ccccccccccccccccccccccccccccccccccccccccccccccccccccccccccccccccccccccccccccccccccccccccccccccccccccccccccccccccccccccccccccccccccccccccccccccccccccccccccccccccccccccccccccccccccccccccccccccccccccccccccccccccccccccccccccccccccccccccccccccccccccccccccccccccccccccccccccccccccccccccccccccc" />
  <path
     transform="translate(852,595)"
     d="m0 0 12 6 8 8 8 10 8 11 4 7 4 11-1 5-8 1h-14l-8 4-11 11-7 8-15 16-5 4-6 1-10-11-9-11-5-6 2-4 10-13 8-10 5-7h2l2-4 10-13 3-4 1-3 5-5 6-9z"
     fill="#ACC779"
     id="path28" />
  <path
     transform="translate(899,528)"
     d="m0 0h7l6 4 2 7 1 7 5 2 8 2-1 13-1 6-1 39-9 21-6 10-2 2-5-1-10-7-1-3 2-14v-12l-2-14-4-6-7-6-7-5-6-32v-3l6-3 14-4 5-2z"
     fill="#ADC87A"
     id="path30" />
  <path
     transform="translate(683,600)"
     d="m 0,0 5,5 8,10 5,6 14,40 10,23 9,10 h 3 l 9,-22 3,-17 4,-14 2,-1 v 5 l -3,9 -3,17 -9,20 1,6 -5,5 -5,3 -8,2 3,9 6,11 3,6 4,-2 10,-13 h 2 l 2,-5 7,-9 3,-3 3,-1 11,-14 13,-16 2,-4 -5,-12 -2,-6 1,-4 5,12 3,7 2,1 2,-4 13,-16 11,-14 6,-8 9,-5 -2,4 -11,15 -5,5 -8,11 -10,12 -3,4 2,5 11,12 9,11 5,1 6,-4 9,-9 7,-8 15,-16 6,-5 7,-2 9,1 v 1 l -13,1 -8,7 -10,10 -7,8 -15,16 -5,3 -7,-1 -10,-11 -9,-11 -3,-4 -1,14 -2,9 -3,22 1,11 5,19 3,18 1,9 3,11 2,11 v 30 l 1,16 4,31 7,42 2,11 v 17 l -3,3 -5,-2 -7,-14 -4,-9 -6,-11 -5,-6 -6,-12 -4,-5 -5,-9 -10,-16 -2,-9 -8,-20 -4,-27 -3,-10 -2,-4 -2,-10 -5,-11 -4,-12 -1,-7 h -2 l -2,9 -7,25 -9,35 -10,38 -4,17 -4,15 -5,20 -3,3 -2,-2 16,-64 5,-18 8,-32 9,-31 5,-18 1,-10 -6,-17 -4,-8 -2,-7 -12,8 h -2 v 2 l -10,7 -5,4 -3.371128,4.41014 L 2,132 l 2,-4 5,-6 9,-6 11,-8 9,-6 10,-2 3,-3 L 40,86 33,71 24,47 15,21 8,14 2,6 Z M 108,75 100,85 99.386581,86.008361 98,87 l -8,11 -6,4 -11,14 -4,4 -3,5 -9,10 -3,5 -2,6 3,14 3,8 6,14 7,28 4,22 7,20 5,12 6,11 8,13 6,10 7,11 10,18 5,12 3,5 2,-1 1,-12 -2,-11 -2,-8 -3,-23 -3,-14 -2,-20 -1,-9 -1,-7 -1,-42 -5,-22 -3,-16 -2,-15 -4,-17 v -16 l 2,-16 2,-10 V 75 Z"
     fill="#f2fede"
     id="path32"
     sodipodi:nodetypes="ccccccccccccccccccccccccccccccccccccccccccccccccccccccccccccccccccccccccccccccccccccccccccccccccccccccccccccccccccccccccccccccccccccccccccccccccccccccccccccccccccccccccccccccccccccccccccccccc" />
  <path
     transform="translate(896,671)"
     d="m0 0 2 1v6l-2 5h2v5l3 3-2 1 3 3 1 6h-3v3l3 1-1 10 2 5-1 5h-6l-1 9-2 2-2 8-5 11 1 13-7 14-2 9-1 2-10-2-6-4-5-8-7-7-2 6-2-4v-5l1-1 2-23 1-7 3-5 1-5-2-5 1-3 9-4 6-8 2-4h2l2-5 8-7 7-4 4-8z"
     fill="#9AB369"
     id="path34"
     style="fill:#acc779;fill-opacity:1" />
  <path
     transform="translate(824,389)"
     d="m0 0 12 1 8 4 3 5 1 24 4 15 7 18 18 34 10 18 11 17-1 2-26 7h-6l-4-9-6-16-3-6-3-10-7-15-9-25-2-14 10-3h3v-2l-11 3h-3l-5-19v-7l5-3 11-4h2v-2l-12 4h-2l-3-6-2-7z"
     fill="#ACC779"
     id="path36" />
  <path
     transform="translate(476,86)"
     d="m 0,0 5,1 7,2 41,1 11,1 4,3 3,7 v 43 l 3,36 4,36 2,11 2,18 4,18 1,25 v 13 l -1,20 -4,14 -5,13 -2,7 1,9 3,11 7,16 6,11 -1,2 -5,-8 -5,-10 -0.976232,-1.86785 L 76,299 71.710527,304.14941 62,309 l -9,9 -9,5 -2.786055,1.09883 L 41,325 l -2,5 -4,8 -2,17 v 5 l 1,1 v 5 h -2 v -2 h -2 l -1,4 -8,16 -5,13 -2,-3 1,-4 12,-25 v -1 l -9,1 -26,-8 -14,-5 -9,-3 -25,-11 -12,-3 -16,-8 -7,-5 -19,-19 v -2 h -2 l -5,-5 -24,-16 -14,-10 -4,-3 v -2 l -4,-1 -3.58515,-4.92341 L -168,257 l -16,5 -15,8 -14,3 -6,5 -19,5 -8,3 -3,3 -1,-4 8,-5 19,-5 6,-5 5,-2 10,-2 9,-4 9,-3 10,-4 5,-1 -4,-4 -10,-15 v -3 h -2 l -7,-16 v -2 l -2.39486,-1.18192 L -196,208 l -6,-12 -8,-15 1,-5 h 2 l 1,7 8,16 6,11 6,12 7,15 8,11 7,8 v 2 h 2 v 2 l 4,2 8,7 14,10 12,7 7,6 3,3 8,6 10,11 6,5 4,4 10,6 16,7 31,12 18,7 15,5 10,3 h 12 v -2 l -2,-5 -4,-2 -7,-8 -9,-10 -6,-11 -3,-14 -12,-35 -5,-11 -10,-35 -5,-25 -6,-19 -6,-17 -2,-7 -4,-11 -4,-12 -4,-5 -5,-11 -1.278435,-1.3318 L -70,119 -80,98 l -7,-12 -3,-7 -4,-5 -3,-6 v 0 l -4,-6 1.026442,-0.885743 L -107,47 l -1,-7 4,2 -1,3 3,1 3,9 0.866524,2.187932 0.781484,2.397967 L -91,69 l 3,5 4,11 9,15 8,16 6,11 5,8 4,5 v 2 l 1.232649,0.56201 1.335813,0.67654 L -48,144 l 4,7 11,13 0.836122,1.46601 L -31,167 l 2.92693,2.07673 8.061842,6.73665 L -18,178 v 0 l 8.5364488,8.21087 L -12,186 l -6,-5 -7,-6 -6,-5 -3,-3 -0.911268,-1.53267 L -36,164 -39.274239,161.46263 -46,153 -48.337115,149.64315 -49,148 h -2 l 6,19 7,17 5,22 1,1 2,14 7,25 5,16 4,10 8,21 5,13 3,16 3,8 5,5 7,8 5,5 7,8 2,-17 8,-17 6,-5 9,-6 7,-7 8,-3 2,-3 5,-3 1,-3 -3,-12 -4,-9 -4,-5 -5,-5 -3.530005,-4.02031 2.345346,-0.96591 L 71,268 l 2,-4 5,-13 5,-17 V 178 L 79,158 78,155 76,137 71,98 68,62 67,18 V 15 L 65,10 61,7 26,6 8,5 0,1 Z"
     fill="#edfed3"
     id="path38"
     sodipodi:nodetypes="ccccccccccccccccccccccccccccccccccccccccccccccccccccccccccccccccccccccccccccccccccccccccccccccccccccccccccccccccccccccccccccccccccccccccccccccccccccccccccccccccccccccccccccccccccccccccccccccccccccccccccccccccccccccccccccccccccccccccccccccccccc" />
  <path
     transform="translate(774,614)"
     d="M 0,0 H 2 L 5,17 8.0102322,27.830054 13,36 l 4,12 2,5 -11,14 -13,16 -3,4 -5,3 -7,9 -3,5 h -2 l -2,4 -9,11 h -4 l -4,-8 -7,-13 v -5 l 12,-5 3,-3 0.924697,-2.522149 L -34,77 l 8,-20 3,-17 5.750321,-16.164555 2.47679,-3.685386 2.086497,-3.738893 L -10,14 -3,3 Z"
     fill="#acc779"
     id="path40"
     sodipodi:nodetypes="cccccccccccccccccccccccccccccccc" />
  <path
     transform="translate(811,566)"
     d="m 0,0 5,5 8,9 17,9 v 8 l -2,8 -1.396971,3.424535 -1.858745,2.761168 L 21.046072,50.24204 6,32 5,29 l -5,2 -11,10 -2,2 v 0 l -3,2 1,5 8,9 3,1 -6,-9 -2,-5 9,-9 6,-4 4,4 8,11 3,4 -1,6 -10,12 -22,28 -3,-1 -8,-19 -3,-14 -2,-7 -3,-14 6,-15 2,-3 8,-4 7,-9 6,-9 z"
     fill="#acc779"
     id="path42"
     sodipodi:nodetypes="cccccccccccccccccccccccccccccccccccccccc" />
  <path
     transform="translate(491,535)"
     d="m 0,0 h 5 l 9,5 8,6 1,1 v 9 L 23.125835,26.65238 22,32 23.960689,36.503147 25,46 26,70 v 27 l 15,-7 17,-6 23,-8 16,-5 21,-7 9,-4 13,-1 15,-5 14,-7 5,-1 3,-2 h 1 l -1,3 -21,9 -3,1 -2.33444,2.123686 -7.46891,2.651804 -2.60325,0.79435 L 130,64 l -16,4 -13,5 -9,2 -20,7 -6,3 -24,8 -14,7 -2,7 -1,15 -6,22 -4,10 -7,12 -11,14 -10,15 -3,17 -1,18 -1,7 -2,-1 v -14 l 2,-23 6,-11 14,-19 1,-2 3.5190377,-4.74238 L 14,149 l 3,-9 4,-16 2,-21 -15,8 -11,6 -16,9 -16,8 -9,5 -9,6 -17,8 -21,8 -14,7 -17,8 -7,3 -8,5 -7,4 h -3 v 2 l -12,5 -2,-1 5,-4 10,-5 5,-3 16,-9 12,-5 15,-8 12,-5 20,-7 15,-8 16,-10 16,-8 14,-8 10,-5 v -1 h -65 l -13,3 -9,1 h -9 l -14,-6 h -9 l -5,2 h -14 l -30,-3 -16,3 -14,1 -21,5 h -19 l -4,-2 -4,-4 v 0 l -9,-4 -9,-3 -12,-9 -4,-7 -2,-6 -1,-8 h 5 c -0.18463,-0.443122 2.33333,9 4,13 l 4,6 5,3 4,3 v 0 l 13,5 9,6 6,3 h 7 l 19,-5 35,-4 21,1 15,1 h 13 l 5,-2 h 9 l 10,5 3,1 13,1 19,-4 H 13 L 22,99 23,97 22,54 20,38 19,31 V 21 L 20,16 16,10 7,5 H -5 l -16,6 -15,8 -18,9 -7,-1 -3,-4 10,2 10,-6 9,-4 16,-8 9,-4 z"
     fill="#edfed3"
     id="path44"
     sodipodi:nodetypes="ccccccccccccccccccccccccccccccccccccccccccccccccccccccccccccccccccccccccccccccccccccccccccccccccccccccccccccccccccccccccccccccccccccccccccccccccccccccccccc" />
  <path
     transform="translate(896,914)"
     d="m0 0 4 1 4 4v2l8-1 4-1 6 4 2 2 6 2 11 1 3 2 2 5 8 10 1 8 3 1v3l-2 1-5 16-5 5-6 4-5 5-4 3-4 1-19-1-2-6 2-7 6-2v-3l4-4 3-6 6-4 1-5 1-7-1-1h-14l-4 4h-1l-2 7h-2l2 8v6l-2 4-2-1-2-3v-7l-2-12-2 2v4l2-1-1 3-6-1-4-3 1-3h2l1-8 4-3 1-16h-2v-7z"
     fill="#9AB369"
     id="path46"
     style="fill:#000000;fill-opacity:0" />
  <path
     transform="translate(715,180)"
     d="m 0,0 3,4 6,16 10,26 8,20 6,16 11,28 13,33 v 2 l 11,-7 7,-4 2,3 -9,7 -7,5 1,7 5,14 8,19 3,9 3,3 1,4 h -4 v 5 h 5 l 1,-3 1,4 v 2 l 2,1 1,6 9,19 5,16 8,20 h 6 l -2,-13 -2,-8 v -6 l 1.44458,2.35263 L 115,257 l 11,-3 h 3 v 2 l -10,3 h -3 l 2,6 v 11 l -7,2 -1,2 h -4 l -8,-21 -11,-28 -5,-12 -5,-5 -4,-4 h -3 -6 l -4,10 -7,14 -2,1 H 20 l -9,-2 -19,-7 -7,1 -10,9 -7,5 -9,2 6,9 12,16 3,25 2,15 4,17 v 6 l -2,-1 -6,-28 -3,-28 -2,-7 -10,-13 -7,-9 -4,2 -18,12 -8.357105,3.73305 L -79,266 l -8,6 h -2 v 2 h -2 v 2 l -8,7 -4,3 -4,-5 -3,-1 -3,-7 -8,-11 -11,-13 -4,-5 v -2 l -1.66121,-0.81226 -5.04009,-9.62012 L -143,230 l 9,12 v 2 l 1.97936,0.86651 L -126,252 l 9,11 9,12 5,6 h 4 v -2 l 8,-7 16,-12 4,-1 19,-13 4,-3 h 2 l -2,-10 v -9 l 1,-12 4,-15 7,-7 h 2 v -2 l 5,-4 2,1 -5,5 -8,7 -3,9 -1,7 -1,9 v 12 l 1,7 12,-3 10,-9 8,-6 1,-43 1,-7 -11,9 h -3 l 14,-13 8,-18 3,-11 2,-17 V 103 L -2,87 -6,65 -8,48 V 28 l 2,-8 5,-8 -1,-6 -1,-4 z m 1,14 -5,6 -2,8 v 24 l 6,36 2,7 1,8 v 14 l -2,23 -5,15 -5,11 -2,4 -1,43 1,10 28,9 20,1 h 12 l 4,-4 7,-14 1,-4 1,-3 2,-1 9,-1 2,-2 -1,-6 L 70,186 55,150 45,124 31,88 25,72 18,55 12,39 2,14 Z"
     fill="#f1fedc"
     id="path48"
     sodipodi:nodetypes="ccccccccccccccccccccccccccccccccccccccccccccccccccccccccccccccccccccccccccccccccccccccccccccccccccccccccccccccccccccccccccccccccccccccccccccccccccccccccccccccccccccccccccccccccccccccc" />
  <path
     transform="translate(1469,919)"
     d="m0 0 5 2 6 8 6 17 6 14-7-21-2-8 1-3 4 1 6 5 3 3 7 4 1 1 1 9v-7h3l5 5 1 3 1-2 7 5 13 9 3 2-2 4-4 1h-2l1 2-4-2-1-3h-2l4 5-1 3-4 2-3 2-2-5h-2l3 5v2l-4-1-3-4 3 5v3l-8 5-2-1-1-1v4l-5 4h-3v2h-3l-1 2-3-8-4-11-4-8-4-11-8-28-3-9 1-5z"
     fill="#E9FACE"
     id="path50"
     style="fill:#acc779;fill-opacity:1" />
  <path
     transform="translate(952,672)"
     d="m 0,0 6,2 13,5 13,3 27,3 15,4 7,3 14,9 6,7 4,6 4,4 7,11 5,6 8,7 5,4 7,4 8,6 17,12 12,9 14,8 13,10 9,9 10,7 9,7 8,7 v 0 l 5,4 9,5 14,10 10,9 13,8 11,9 9,6 9,7 7,5 h 4 l 6,-9 5,-9 7,-8 6,-9 8.48808,-13.24681 L 366,166 l 2,-4 5,-7 1.33264,-1.51912 L 377,150 l 7,-11 6,-11 9,-21 6,-13 3,1 -1,6 -5,11 -10.91791,21.67045 -2.67738,4.56367 L 387,141 l -3.09342,5.07465 -5.26103,7.34816 -1.16525,1.67225 -1.35659,1.87446 -1.40332,1.58988 -3.78437,5.42285 L 367,170 l -8,13 -9,14 -4,5 -7,13 -3,4 v 8 l -4,1 -1,-3 -4,-2 -1,-4 -5,-2 -5,-5 -5,-3 -10,-7 -13,-10 -11,-7 -9,-8 -17,-12 -10.47868,-9.52221 L 229,148 212,136 201,125 186,115 173,107 149,89 142,85 132,78 121,69 110,57 102,46 91,33 87,29 80,25 72,21 62,18 45,16 44,15 19,10 6,5 0,2 Z"
     fill="#edfdd3"
     id="path52"
     sodipodi:nodetypes="cccccccccccccccccccccccccccccccccccccccccccccccccccccccccccccccccccccccccccccccccccccccccccccccccccccccc" />
  <path
     transform="translate(1014,904)"
     d="m0 0 2 1-9 7-6 4-15 11-5 11-8 19-4 11 6 10 10 15 3 6 10 15 6 10v4l-8 8h-2v2h-2v2l-7 6-5 5-13 12-4 4h-2v2l-8 7-8 8-8 7-4 2-3-74-18-8-30-13-23-10-34-15-23-10-25-11-21-9-25-11-14-6v-2l4-1 7 2v2l5 2 11 4 13 6 17 8 25 11 15 7 7 3 25 11 10 4 17 7 8 3 13 5 15 5 5 4 4 1 7 2 9 5 1 2v25l1 27v15l5-2 10-9h2l2-4 3-3h2v-2l3-1 1-3h3l2-4h2v-2h2v-2h3l2-4 6-7 4-1 2-4h2v-2l8-7-1-8h-2l-11-17-3-6-3-3-2-4-3-3-2-5-4-1-1-4-3-1-1-6 1-5 2-1 2-8 4-8 4-10 1-2h2l1-8 3-3h3l1-4 9-5 7-4z"
     fill="#9AB369"
     id="path54" />
  <path
     transform="translate(605,460)"
     d="m 0,0 4,1 3,4 2,6 5,10 h 2 l 5,7 3,5 2.53416,4.361482 L 29,41 l 3.636677,10.035839 1.522935,11.148025 0.799773,7.908557 -1.342537,0.01077 L 27,65 14,56 5,50 -5,41 l -7,-8 -10,-9 6,-7 10,-9 z"
     fill="#adc87a"
     id="path56"
     sodipodi:nodetypes="ccccccccccccccccccccccc" />
  <path
     transform="translate(506,450)"
     d="m 0,0 h 2 l 9,16 4,8 7,8 6,5 2,5 v 3 l -12,3 -4,3 v 0 l -2,5 -2,4 -5,3 -7,-1 -10,-6 -3,-2 2,-7 1,-1 v -7 l -2,-4 1,-8 5,-11 6,-12 z"
     fill="#adc87a"
     id="path58"
     sodipodi:nodetypes="ccccccccccccccccccccccccc" />
  <path
     transform="translate(714,192)"
     d="m 0,0 2,3 -4,5 -2,8 v 24 l 6,36 2,7 1,8 v 14 l -2,23 -5,15 -5,11 -2,4 -1,43 v 10 l 7,1 21,7 20,1 h 12 l 3,-1 2,-6 5,-10 1,-4 2,-4 2,-1 h 9 l -2,2 3,3 -10,-1 -4,10 -7,14 -2,1 H 21 l -9,-2 -19,-7 -7,1 -10,9 -7,5 -9,2 6,9 12,16 3,25 2,15 4,17 v 6 l -2,-1 -6,-28 -3,-28 -2,-7 -10,-13 -7,-9 -4,2 -18,12 -8.357105,3.73305 L -78,254 l -8,6 h -2 v 2 h -2 v 2 l -8,7 -4,3 -4,-5 -3,-1 -3,-7 -8,-11 -11,-13 -4,-5 v -2 l -1.66121,-0.81226 L -147,212 l 1,-2 13,20 v 2 l 1.97936,0.86651 L -125,240 l 9,11 9,12 5,6 h 4 v -2 l 8,-7 16,-12 4,-1 19,-13 4,-3 h 2 l -2,-10 v -9 l 1,-12 4,-15 7,-7 h 2 v -2 l 5,-4 2,1 -5,5 -8,7 -3,9 -1,7 -1,9 v 12 l 1,7 12,-3 10,-9 8,-6 1,-43 1,-7 -11,9 h -3 l 14,-13 8,-18 3,-11 2,-17 V 91 L -1,75 -5,53 -7,36 V 16 l 2,-8 z"
     fill="#f0fedb"
     id="path60"
     sodipodi:nodetypes="ccccccccccccccccccccccccccccccccccccccccccccccccccccccccccccccccccccccccccccccccccccccccccccccccccccccccccccccccccccccccc" />
  <path
     transform="translate(600,120)"
     d="m0 0 4 2 12 8 8 6 11 8 14 10 13 10 20 14 4 3 11-1 25-5 8 16 13 27 6 14 8 16 8 18 10 21 6 12 12 14 9 11 12 14 6 8 13 15 11 14 11 13 15 4 8 3 25 7 7 2 22 14 13 8 9 5 16 10 14 9 1 2-5-2-9-5-24-15-9-5-18-11-13-8-30-8-14-4-10-4-5-6v-2h-2v-2h-2l-3-5-9-10-8-10-9-11-11-13-8-10-1-3h-2v-2h-2v-3l-3-1-12-15-7-16-5-9-4-10-14-30-17-36-5-12-3-5-13 2-15 3h-7l-13-9-15-11-14-11-5-3-20-14-13-10-6-4z"
     fill="#9AB369"
     id="path62" />
  <path
     transform="translate(1043,891)"
     d="m0 0 24 1 9 11 6 9v2h2l4 6 7-1 15-6 15-5h5l5 5 3 4v3h3l1 2h4l2 6 4 3 5 1 4-2 7-1 1-1h5l1-4h9l7 3 9 5 6 3 3 3 7 3 5-1 5-7 4-4h5l1 3h2l8 12 5 9 7 11 11 18 7 10 6 11 2 5h2l3 5h2l3-6 2-2 15 1 20 3 9-1v2l-3 2-12-1-13-2-15-1-7 11-4-4-7-12-7-11-6-10v-2h-2l-6-10-8-13-12-20-3-4-5-1-2 4-5 6-5 4-5-2-18-10-12-5-9 1-22 7-4 1-18-27-3-1-15 6-22 8-4-1-6-9v-2h-2l-11-16-1-2h-27l-10 1-3 1v2h-2v2l-6 4h-2l1-3 7-5 3-4z"
     fill="#9AB369"
     id="path64" />
  <path
     transform="translate(485,37)"
     d="m0 0 4 1 28 20 17 13 17 12 14 10 15 11 17 12 3 4-5-2-18-13-6-5-5-3-18-13-10-7-8-5v-2l-6-3v-2l-5-2-2-1v-2l-5-2-22-16-3-2-6 4h-2l-1 3-8 7-1 31-13 6-58 24-14 6-13 4-50 12-34 8-29 7-15 3-24 6-18 4-3 8-10 37-5 17-2 7h-1l1-9 12-43 5-18 9-3 31-7 24-6 14-3 18-5 15-3 59-14 9-2 33-14 20-8 25-11 10-4h2v-31l11-10z"
     fill="#9AB369"
     id="path66" />
  <path
     transform="translate(813,387)"
     d="m0 0 7 1 5 10 2 5-1 5-3 4 2 10 6 23v10l-6 1-4-8-8-21-4-13-7-14-1-7v-5z"
     fill="#ADC87A"
     id="path68" />
  <path
     transform="translate(908,705)"
     d="M 0,0 3,1 11,17 21.658018,35.247018 23,37 l 5,11 3,14 2,15 4,10 6,20 4,15 5,11 8,17 12,18 v 2 l 4,2 4,5 v 2 l 4,2 7,7 7,10 1,4 -4,1 -7,-10 -4,-4 v -2 L 80,185 73,177 65,167 55,151 47,135 41,120 34,95 29,82 28,80 26,60 19,39 H 17 L 6,17 -1,2 Z"
     fill="#eefed5"
     id="path70"
     sodipodi:nodetypes="ccccccccccccccccccccccccccccccccccccccccc" />
  <path
     transform="translate(861,575)"
     d="m0 0h8l8 4 9 7 4 6 1 5v23l-1 7-12-15-6-8-9-7-8-5z"
     fill="#ADC87A"
     id="path72" />
  <path
     transform="translate(267,262)"
     d="m 0,0 h 2 l 1,7 8,16 6,11 6,12 7,15 8,11 7,8 v 0 l 2,2 4,4 v 0 l 8,7 14,10 12,7 7,6 3,3 8,6 10,11 6,5 4,4 10,6 16,7 15,6 1,2 -5,-1 -14,-5 -6,-2 -12,-5 -10,-7 -19,-19 -2,-2 v 0 L 92,120 68,104 54,94 50,91 v 0 L 46,88 42.376288,82.937566 41,81 l -16,5 -15,8 -14,3 -6,5 -19,5 -8,3 -3,3 -1,-4 8,-5 19,-5 6,-5 5,-2 10,-2 9,-4 9,-3 10,-4 5,-1 -4,-4 -10,-15 v 0 L 24,56 17,40 V 38 L 14.60514,36.81808 13,32 7,20 -1,5 Z"
     fill="#ecfdd2"
     id="path74"
     sodipodi:nodetypes="cccccccccccccccccccccccccccccccccccccccccccccccccccccccccccccccccccccc" />
  <path
     transform="translate(826,501)"
     d="m0 0 5 1 8 14 6 4 6 12 2 5v5l-11 3-5-1-4-4-7-8-4-6-3-14v-7l5-3z"
     fill="#ADC87A"
     id="path76" />
  <path
     transform="translate(290,714)"
     d="m0 0 6 2 18 8 15 7 10 4 7 3 14 1 50 1 14 8 16 7 19 10 16 9 9 9 6 4 9 9 5 3 5 5 7 6 5 6 8 7 12 10v2l4 2 4 5 6 13-2 4-12 10-1 2h-2l1 4 15 13 3 2 26 4 16 4v2l3 1-10-1-26-5-12-3-12-11-5-4v-2l-3-1v-2h2l2-4 10-9 4-4-7-14-15-14-8-7-12-11-8-7-16-15-11-9-5-4-15-8-46-23-22-1-41-1-14-6-15-7-11-5-16-8z"
     fill="#9AB369"
     id="path78" />
  <path
     transform="translate(738,548)"
     d="m0 0h7l5 13 3 4-16 4-11 5h-19l-2-1 2-8 3-6 24-10z"
     fill="#ADC87A"
     id="path80" />
  <path
     transform="translate(933,549)"
     d="m0 0 10 1 17 5 33 11 18 4 19 10 10 5 9 2 6 2 6 1 6 3 21 5 8 1 10 2 14 3 12 2 20 7 8 3 13 4 9 4 15 7 18 11 1 2-6-2-12-7-12-5-8-4-10-3-12-5-14-4-12-4-17-3-12-3-22-3-36-11-6-4-26-13-30-8-36-12-15-2z"
     fill="#EDFED3"
     id="path82" />
  <path
     transform="translate(793,523)"
     d="M 0,0 2.6560084,-0.80109803 3,2 7,14 -5,17 -10,22 -20,20 -36,18 -39,9 V 7 l 25,-5 z"
     fill="#acc779"
     id="path84"
     sodipodi:nodetypes="cccccccccccc" />
  <path
     transform="translate(1519,950)"
     d="m0 0 5 2 11 8 2 1v2l5 2 2 4-11 7-14 10-13 9-19 13-10 7-5 4h-2l-1-3-1-20-16 6-19 7-12 5-26 10-5-3-13-12-8-7-1-2 4 2 11 9 7 7 3 2 7-1 49-19 19-7 2 1 2 21 11-7 10-7 1-3h3v-2l5-3 3-1v-4l3 1 6-4h2l-4-8v-3l5 7 3 1-3-5v-2h2l3 4 3-3 3-1-2-4-1-3h2l3 3 1-2 4 1 4-4-4-2-6-4-5-5z"
     fill="#9AB369"
     id="path86" />
  <path
     transform="translate(1466,938)"
     d="m0 0h3l3 9 3 8 4 18-2 1v2l4-2 6 11 3 9v8l-8 2-4-3-4-12-1-12-6-9-1-7v-15l-2-6h2z"
     fill="#ECFDD2"
     id="path88"
     style="fill:#acc779;fill-opacity:1" />
  <path
     transform="translate(792,693)"
     d="m 0,0 h 2 l -3,25 1,11 5,19 3,18 1,9 3,11 2,11 v 30 l 1,16 4,31 4,24 v 9 l -2,-2 -4,-21 -2,-9 -2,-20 -1,-9 -1,-7 L 10,104 5,82 2,66 0,51 -4,34 V 18 L -1,2 Z"
     fill="#f2fede"
     id="path90"
     sodipodi:nodetypes="cccccccccccccccccccccccccccc" />
  <path
     transform="translate(156,542)"
     d="m0 0h5l3 9 4 1 8 4 10 3v2h2v3h2l1 16 2 5 15-2h6l3 5 1 6v12h-5l-1-13-2-4h-3l-7 2h-11l-3-3-1-5v-17h-2v-2h-6l-12-5-3-4-4-2-2-6z"
     fill="#9AB369"
     id="path92"
     style="fill:#aa4400" />
  <path
     transform="translate(848,545)"
     d="M 0,0 H 5 7 V 2 L 8,19 7,31 -3,28 -12,21 -18,18 V 8 l 7,-4 z"
     fill="#acc779"
     id="path94"
     sodipodi:nodetypes="cccccccccccc" />
  <path
     transform="translate(94,529)"
     d="m0 0 1 3-1 3v12l2 15 3 29 2 9 9 9 7 6 7 8 20 20-1 7-8 26-2 9 8 23 14 41 2 4 25 7 3 1 2-5 3-5 2-1-2 6-4 7-8-1-22-6-3-3-6-20-16-45-1-7 11-32v-5l-35-35-7-8-2-5-6-56 1-7z"
     fill="#9AB369"
     id="path96" />
  <path
     transform="translate(792,380)"
     d="M 0,0 4,1 5,5 H 1 v 5 h 5 l 1,-3 1,4 v 2 l 2,1 1,6 9,19 5,16 8,20 h 6 L 37,62 35,54 33.779834,48.733948 36,48 l 2,9 11,-3 h 3 v 2 l -10,3 h -3 l 2,6 v 11 l -7,2 -1,2 H 29 L 21,59 10,31 5,19 -1,15 -4,10 -8,7 h 4 l 1,-3 h 2 z"
     fill="#f2fedf"
     id="path98"
     sodipodi:nodetypes="cccccccccccccccccccccccccccccccccccccccc" />
  <path
     transform="translate(828,457)"
     d="m0 0h4l13 34 8 19 6 15 4 8v4l-6 2-5-11-3-8-2-7-6-16-7-18-5-13-3-6v-2z"
     fill="#ACC779"
     id="path100" />
  <path
     transform="translate(826,555)"
     d="m 0,0 2,1 v 8 l 9,7 7,5 11,4 -1,5 -3,5 L 18,32 2,24 -4,20 -8,14 -12,9 V 7 l 6,-4 v 0 l 3,-2 z"
     fill="#acc779"
     id="path102"
     sodipodi:nodetypes="cccccccccccccccccc" />
  <path
     transform="translate(221,376)"
     d="m 5,-5 1,4 v 0 l -10,10 -7,8 -14,12 -3,9 -3,7 -4,21 -2,3 -3,10 -9,15 -5,3 -4,1 1,-5 5,-2 6,-11 3,-5 2,-9 3,-10 3,-14 5,-12 0.79498,-1.718726 L -26,25 l 5,-5 6,-5 11,-11 z"
     fill="#ebfcd1"
     id="path104"
     sodipodi:nodetypes="cccccccccccccccccccccccccccc" />
  <path
     transform="translate(714,192)"
     d="m0 0 2 3-4 5-2 8v24l6 36 2 7 1 8v14l-2 23-5 15-5 11-2 4-1 52-2 1-1-11 1-32 1-7-11 9h-3l14-13 8-18 3-11 2-17v-20l-3-16-4-22-2-17v-20l2-8z"
     fill="#EDFED3"
     id="path106" />
  <path
     transform="translate(706,525)"
     d="m0 0 6 2 18 12-1 9-16 8h-3l-1-17z"
     fill="#ADC87A"
     id="path108" />
  <path
     transform="translate(792,541)"
     d="m 0,0 h 8 l 4,3 4,2 7,2 5,7 -6,4 -5,-1 -3,-1 -13,-1 v 0 L -3,11 -8,8 V 5 Z"
     fill="#acc779"
     id="path110"
     sodipodi:nodetypes="ccccccccccccccc" />
  <path
     transform="translate(1220,644)"
     d="m0 0 5 3 13 10 6 6 5 3 15 13 13 8 64 32 5 12 8 20 5 11 1 5-3-3-5-11-8-20-5-12-70-35-16-13-7-5v-2l-5-2-7-7-11-9-3-2z"
     fill="#9AB369"
     id="path112" />
  <path
     transform="translate(816,529)"
     d="m0 0h4l3 5 4 4 6 8-1 3-6 3-4-1-6-6-11-4v-4l7-6z"
     fill="#ADC87A"
     id="path114" />
  <path
     transform="translate(408,490)"
     d="m 0,0 6,1 4,2 20,1 3,1 h 12 l 7,-3 4,1 5,1 -4.95681,1.5183117 -4.290137,1.151378 L 45,10 H 37 L 28,7 H 18 L 7,29 v 10 l 3,10 0.181091,7.680854 L 13,62 19,68 21.239492,70.472763 15,69 8,63 6.292358,53.368474 5,44 4,39 V 30 L 8,20 13,11 14,7 6,5 0,1 Z"
     fill="#edfed3"
     id="path116"
     sodipodi:nodetypes="cccccccccccccccccccccccccccccccccc" />
  <path
     transform="translate(614,464)"
     d="m 0,0 18,8 4,4 h -4 l -1,8 v 3 l -0.430702,5.436971 2.186997,3.564613 L 18,34 12,27 6.8515337,19.181373 5,17 1,12 -2,6 V 2 Z"
     fill="#edfed3"
     id="path118"
     sodipodi:nodetypes="cccccccccccccccc" />
  <path
     transform="translate(1519,950)"
     d="m0 0 5 2 11 8 2 1v2l5 2 2 4-11 7-14 10-13 9-11 8-2-1 1-4h3v-2l5-3 3-1v-4l3 1 6-4h2l-4-8v-3l5 7 3 1-3-5v-2h2l3 4 3-3 3-1-2-4-1-3h2l3 3 1-2 4 1 4-4-4-2-6-4-5-5z"
     fill="#A2BC70"
     id="path120" />
  <path
     transform="translate(755,544)"
     d="m0 0h10l16 3 1 5 6 4-5 5-8 2-4-6-3-3-6-3-7-6z"
     fill="#ADC87A"
     id="path122" />
  <path
     transform="translate(796,382)"
     d="m0 0 4 3 25 1 10 2 9 3 1 2-3 1-6-3-12-1 3 10 2 6 12-4h2v2l-16 6-1 1v7l2 10-2 2-4-15 1-5 3-3-1-6-5-12-7-1h-12v5l-2-3v-2l-3 3-4-1 1-5 3-1z"
     fill="#EFFED8"
     id="path124" />
  <path
     transform="translate(926,565)"
     d="m0 0h1v43l-10 23-6 9-2 4 5 2 19 13 14 9-3 1-11-7-15-10-10-7-4 2-4 3v-3l3-3 1-3 5-2 6-10 9-21 1-39z"
     fill="#F0FEDB"
     id="path126" />
  <path
     transform="translate(892,633)"
     d="m 0,0 4,1 9,6 -2,5 -3,4 v 16 l 3,16 6,20 -2,6 L 7,44 5,21 3,22 H -8 l -9,-1 V 20 H -3 L 3,19 2,12 -1,4 Z"
     fill="#f0feda"
     id="path128"
     sodipodi:nodetypes="cccccccccccccccccccc" />
  <path
     transform="translate(793,559)"
     d="m 0,0 h 12 l 5,3 -5,4 -3,3 v 0 l -3,3 -7,1 -7,-2 -2,-8 5,-3 z"
     fill="#adc87a"
     id="path130"
     sodipodi:nodetypes="cccccccccccc" />
  <path
     transform="translate(863,540)"
     d="m0 0h2l5 19 1 13h-9l-2-21-2-8z"
     fill="#ADC87A"
     id="path132" />
  <path
     transform="translate(973,866)"
     d="m 0,0 3,1 4,6 4,4 v 0 l 4,5 4,4 v 0 l 7,7 7,10 1,4 -4,1 -7,-10 -4,-4 -4,-4 v 0 L 8,16 0,6 -1,3 Z"
     fill="#edfed4"
     id="path134"
     sodipodi:nodetypes="cccccccccccccccccccc" />
  <path
     transform="translate(684,732)"
     d="M -1.0140965,1.8493777 0,3 l -8,11 -6,8 -3.990264,5.106418 -1.493296,2.083165 L -22,33 -30.79813,45.791974 -37,51 l -12,5 -14,8 -13,11 -7,6 -2,-1 12,-12 10,-7 10,-6 1.906425,-1.24665 2.045837,-0.639103 L -36,47 -32.753471,44.387092 -30,41 -19,24 -14,17 -12.499497,15.252908 -10,12 -2,1 Z"
     fill="#edfed3"
     id="path136"
     sodipodi:nodetypes="cccccccccccccccccccccccccccc" />
  <path
     transform="translate(873,653)"
     d="m0 0 11 1v1l-13 1-8 7-10 10-7 8-15 16-5 3-7-1-10-11-9-11-2-4 4 2 9 10 9 11 5 1 6-4 9-9 7-8 15-16 6-5z"
     fill="#EFFED8"
     id="path138" />
  <path
     transform="translate(683,600)"
     d="m0 0 5 5 8 10 5 6 14 40 10 23 9 10 2 2h-3l-10-10-7-15-9-24-9-26-7-7-6-8z"
     fill="#F0FEDA"
     id="path140" />
  <path
     transform="translate(748,545)"
     d="M 0,0 4,1 9,6 22,16 23,22 11,21 6.6495634,17.30997 5,14 2,10 0,4 Z"
     fill="#adc87a"
     id="path142"
     sodipodi:nodetypes="ccccccccccc" />
  <path
     transform="translate(1515,950)"
     d="m0 0 5 3 9 6 10 7-2 4-4 1h-2l1 2-4-2-1-3h-4l-7-10z"
     fill="#DAEEB9"
     id="path144"
     style="fill:#acc779;fill-opacity:1" />
  <path
     transform="translate(814,515)"
     d="m 0,0 h 3 l 1,11 -8,3 -4,1 -1,3 -3,1 -2,-5 v 0 L -15.681531,8.1028171 -6,3 Z"
     fill="#acc779"
     id="path146"
     sodipodi:nodetypes="cccccccccccc" />
  <path
     transform="translate(432,639)"
     d="m0 0 72 1v3h-73l-10 1v-2z"
     fill="#EEFED6"
     id="path148" />
  <path
     transform="translate(736,239)"
     d="m0 0 4 2 8 21 10 26-1 2-3-6h-3l-8-21-6-16-1-2z"
     fill="#F1FEDC"
     id="path150" />
  <path
     transform="translate(1144,582)"
     d="m0 0 6 3 9 8 9 7v2l5 2 13 11 10 8 22 18 2 3-4-2-11-8-16-13h-2l-4-5-2-1v-2l-4-2-13-11-9-7-11-9z"
     fill="#9AB369"
     id="path152" />
  <path
     transform="translate(1364,778)"
     d="m0 0 3 4 16 40 7 17 5 12 4 9v2l5 2 10 7-3 1-10-7-5-5-8-18-6-16-12-29-5-14z"
     fill="#9AB369"
     id="path154" />
  <path
     transform="translate(571,410)"
     d="m 0,0 4,4 6,8 v 2 L 11.979362,14.86651 18,22 l 9,11 9,12 5,6 h 4 v -2 l 8,-7 16,-12 3,1 -2.357105,1.733047 L 66,35 57,42 55.990176,43.044738 55,44 53,46 v 0 l -8,7 -4,3 -4,-5 -2.965,-3.58815 -3,-7 L 23,32 12,19 8,14 V 12 L 6.3387868,11.187743 2.5052171,2.8221308 Z"
     fill="#edfed3"
     id="path156"
     sodipodi:nodetypes="ccccccccccccccccccccccccccccccccc" />
  <path
     transform="translate(706,885)"
     d="m0 0h3l2 7-3 6h-2l-1 7-3 7h-2v2l-4-2-1-10 1-2 3-1 1-2h2v-2h2l1-9z"
     fill="#9AB369"
     id="path158"
     style="fill:#000000;fill-opacity:0" />
  <path
     transform="translate(972,447)"
     d="m0 0h2l-1 5-6 11-5 7-8 16-7 10-3 5-2-2 5-10 6-9 10-19 4-5 3-8z"
     fill="#EDFED3"
     id="path160" />
  <path
     transform="translate(908,705)"
     d="M -1,-2 1,-4 11,17 19.911256,33.358677 24,46 23,49 19,41 v 0 L 17,39 6,17 -1,2 Z"
     fill="#f3fee0"
     id="path162"
     sodipodi:nodetypes="cccccccccccc" />
  <path
     transform="translate(747,531)"
     d="m0 0h5l3 8-1 4-9 1-10 2 2-6 4-6z"
     fill="#ADC87A"
     id="path164" />
  <path
     transform="translate(665,579)"
     d="m 3,0 h 1 l -1,3 -21,9 -3,1 -3.471802,2.164812 -6.331546,2.610678 L -33.4066,18.56984 -44,20 l -3,1 h -8 v -2 l 8,-3 13,-1 15,-5 14,-7 5,-1 z"
     fill="#eefed6"
     id="path166"
     sodipodi:nodetypes="cccccccccccccccccc" />
  <path
     transform="translate(267,262)"
     d="m 0,0 h 2 l 1,7 8,16 6,11 6,12 7,15 8,11 5,6 v 2 H 41 L 33,70 26,59 V 56 H 24 L 17,40 V 38 L 14.60514,36.81808 13,32 7,20 -1,5 Z"
     fill="#edfed3"
     id="path168"
     sodipodi:nodetypes="cccccccccccccccccccccc" />
  <path
     transform="translate(273,710)"
     d="m0 0h7l5 1v1h-9l-35 14-17 6-5-1-16 7-5 4v-3h2l1-3 6-2v-2l14-4 5 1 12-5 24-9z"
     fill="#9AB369"
     id="path170" />
  <path
     transform="translate(821,463)"
     d="m0 0 3 3 8 21 8 20-1 3-7-12-5-14-6-9-2-5 1-5z"
     fill="#ADC87A"
     id="path172" />
  <path
     transform="translate(545,387)"
     d="M 0,0 5.0173669,0.35011809 2.7105272,3.1494051 -7,8 l -9,9 -9,5 -2.786055,1.09883 L -30,23 l 2,-4 9,-6 8,-7 3,-3 z"
     fill="#f3fee1"
     id="path174"
     sodipodi:nodetypes="ccccccccccccc"
     style="fill:#edfed3;fill-opacity:1" />
  <path
     transform="translate(1058,512)"
     d="m0 0 4 2 15 11v2l4 2 17 14 11 9 9 7-2 1-6-3-5-5-14-10-4-5-10-8-13-10v-2l-4-2z"
     fill="#9AB369"
     id="path176" />
  <path
     transform="translate(637,476)"
     d="M -3.3496737,-2.4841789 2,0 3.5759154,1.4695781 6.8717688,4.0639952 22,10 l 10,6 4,4 17,12 11,8 v 2 L 59,40 44,29 31,20 27,16 23,14 17,10 4,5 -3,-1 Z"
     fill="#f0feda"
     id="path178"
     sodipodi:nodetypes="ccccccccccccccccccc" />
  <path
     transform="translate(1357,766)"
     d="M 0,0 3,1 2,7 -3,18 -8.9871153,30.022244 -12,33 l -3,4 1,-5 8,-19 z"
     fill="#eefed7"
     id="path180"
     sodipodi:nodetypes="cccccccccc" />
  <path
     transform="translate(843,393)"
     d="m0 0 4 1 2 4 1 25 6 20 4 10-1 3-3-4-7-20-2-9-1-24z"
     fill="#F0FED9"
     id="path182" />
  <path
     transform="translate(715,180)"
     d="m0 0 3 4 6 16 2 7-3 4-6-15v-2h-2l-3-12z"
     fill="#F1FEDB"
     id="path184" />
  <path
     transform="translate(731,753)"
     d="m 0,0 v 2 l -7,27 -2,9 -2,-2 -2,1 4,-16 6,-20 3,1 z"
     fill="#f1fedc"
     id="path186"
     sodipodi:nodetypes="cccccccccc" />
  <path
     transform="translate(780,347)"
     d="m0 0 2 3 8 19 3 9 1 2h-2l-2 4-6-18-6-14 1-3z"
     fill="#EDFED3"
     id="path188" />
  <path
     transform="translate(763,701)"
     d="M 6.8435566,-5.0977462 10,-3 2,5 -8.0729668,16.095128 -10,17 l -2,5 -3,4 -1,-5 2,-4 1.850207,-2.127928 L -10,12 -2,3 Z"
     fill="#edfed3"
     id="path190"
     sodipodi:nodetypes="ccccccccccccc" />
  <path
     transform="translate(615,468)"
     d="M 0,0 5,1 15,6 13.400329,21.4251 9,15 1,5 Z"
     fill="#adc87a"
     id="path192"
     sodipodi:nodetypes="ccccccc" />
  <path
     transform="translate(686,364)"
     d="m 3,-2 h 3 l -9,8 -8,7 -3,9 -1,7 -1,9 v 12 l 1,6 -2,3 -2,-10 v -9 l 1,-12 4,-15 7,-7 v 0 l 2,-2 z"
     fill="#edfed5"
     id="path194"
     sodipodi:nodetypes="cccccccccccccccccc" />
  <path
     transform="translate(819,477)"
     d="m0 0 3 4 6 14-1 3-5 2h-3z"
     fill="#ADC87A"
     id="path196" />
  <path
     transform="translate(434,240)"
     d="M 0,0 5,5 9,10 9.8361225,11.466008 11,13 13.85264,15.293211 21.988772,21.81338 24,24 25.694367,25.424201 57,56 55,57 31.972974,33.703183 24,27 17,21 11,16 8,13 7.088732,11.46733 6,10 2.725761,7.46263 0.12342115,4.2066985 Z"
     fill="#edfed3"
     id="path198"
     sodipodi:nodetypes="ccccccccccccccccccccc" />
  <path
     transform="translate(642,532)"
     d="M 0,0 0.65030757,1.9068955 4,10 9,22 13,32 31,45 28.42849,46.571964 23,43 13,35 10,32 2,12 -0.05826516,6.7312003 -1,1 Z"
     fill="#effed8"
     id="path200"
     sodipodi:nodetypes="cccccccccccccc" />
  <path
     transform="translate(908,529)"
     d="m0 0 5 1 2 3 2 12 16 4-3 1-2 18-2-3 2-15-10-2-3-2-3-13z"
     fill="#EFFED8"
     id="path202" />
  <path
     transform="translate(883,501)"
     d="m0 0 3 1 14 22v2h5v2l-12 2h-5l1-2 8-2-7-12-7-11z"
     fill="#EFFED8"
     id="path204" />
  <path
     transform="translate(1522,956)"
     d="m0 0 4 1 13 9-2 4-4 1-5-5-6-9z"
     fill="#EEFED5"
     id="path206"
     style="fill:#acc779;fill-opacity:1" />
  <path
     transform="translate(718,704)"
     d="m 0,0 2,1 -5,5 -9,6 v 0 l -2,2 -10,7 -5,4 -5,6 -2,-2 5,-5 5,-6 9,-6 11,-8 z"
     fill="#edfed3"
     id="path208"
     sodipodi:nodetypes="ccccccccccccccc" />
  <path
     transform="translate(898,674)"
     d="M 0,0 1,3 4,21 6,24 1,20 2,15 -1,14 0,9 h -2 l -1,2 1,-5 z"
     fill="#abc678"
     id="path210"
     sodipodi:nodetypes="cccccccccccc" />
  <path
     transform="translate(856,543)"
     d="M 0,0 2.7863244,2.6812082 4,18 5.1925894,22.824169 4,18 0,17 -0.36826507,13 -1,2 Z"
     fill="#f3fedf"
     id="path212"
     sodipodi:nodetypes="ccccccccc" />
  <path
     transform="translate(673,915)"
     d="m0 0h10v2l6-1 10 2v2l6-2 1-3 1 3h2l1 3 2 2-9-1-30-6z"
     fill="#9AB369"
     id="path214" />
  <path
     transform="translate(789,314)"
     d="m0 0 3 3-9 7-8 5v-3h-4l1-3v2l11-7z"
     fill="#F0FEDA"
     id="path216" />
  <path
     transform="translate(908,705)"
     d="m 1,-4 v 0 l 9,19 1,6 2,4 -1,3 -13,-30 z"
     fill="#eefed6"
     id="path218"
     sodipodi:nodetypes="cccccccc" />
  <path
     transform="translate(267,262)"
     d="m 0,0 h 2 l 1,7 8,16 6,11 1,5 L 14.60514,36.81808 13,32 7,20 -1,5 Z"
     fill="#edfed3"
     id="path220"
     sodipodi:nodetypes="ccccccccccc" />
  <path
     transform="translate(693,468)"
     d="m0 0h1l3 20 4 17v6l-2-1-6-28z"
     fill="#F1FEDD"
     id="path222" />
  <path
     transform="translate(827,428)"
     d="M -1,2 1.44458,2.35263 3,9 14,6 h 3 V 8 L 7,11 H 4 l 2,6 v 9 L 4,27 2,14 0,6 Z"
     fill="#f1fedd"
     id="path224"
     sodipodi:nodetypes="cccccccccccccc" />
  <path
     transform="translate(1519,950)"
     d="m0 0 5 2 11 8 2 1v2l5 2 2 4-5 3-2-1 2-5-4-2-6-4-5-5z"
     fill="#9EB86D"
     id="path226" />
  <path
     transform="translate(788,575)"
     d="m0 0h8l-1 5-6 5-1 2h-2v-10z"
     fill="#ABC678"
     id="path228" />
  <path
     transform="translate(848,519)"
     d="m0 0 3 3 5 13v5l-3-1-6-14v-5z"
     fill="#F3FEDF"
     id="path230" />
  <path
     transform="translate(1282,936)"
     d="M 2,-36 6,-37 1.2256405,2.7031797 -2,15 l -2,9 -7,18 -2,1 1,-6 6,-15 4,-17 z"
     fill="#edfed3"
     id="path232"
     sodipodi:nodetypes="ccccccccccc" />
  <path
     transform="translate(472,490)"
     d="M 0,0 H 8 L 10.502403,3.1466453 11,7 6,5 -10,4 -6,1 Z"
     fill="#f1fedc"
     id="path234"
     sodipodi:nodetypes="cccccccc" />
  <path
     transform="translate(893,635)"
     d="m0 0 9 5 2 4-6 5-4-9z"
     fill="#ADC87A"
     id="path236" />
  <path
     transform="translate(856,567)"
     d="m0 0h1l1 9 2 1-1 7-4 8-3-1 1-6 1-2h2l1-5-2-1z"
     fill="#F2FEDE"
     id="path238" />
  <path
     transform="translate(1495,941)"
     d="m0 0 2 3v10h-4l-3-4 1-7z"
     fill="#F4FEE2"
     id="path240"
     style="fill:#acc779;fill-opacity:1" />
  <path
     transform="translate(849,594)"
     d="m 0,0 4,1 -5,10 -6,7 -3,3 1,-3 7,-15 z"
     fill="#f2fede"
     id="path242"
     sodipodi:nodetypes="cccccccc" />
  <path
     transform="translate(692,896)"
     d="m0 0h1v8l-3 10-2 1-2-2 4-16z"
     fill="#F1FEDC"
     id="path244" />
  <path
     transform="translate(843,393)"
     d="m0 0 4 1 2 4v27l-2-2-1-24z"
     fill="#F2FEDF"
     id="path246" />
  <path
     transform="translate(764,526)"
     d="m0 0h6l-4 3-12 1 3 8v3h-2l-3-8v-3l-3-1 9-2z"
     fill="#EFFED9"
     id="path248" />
  <path
     transform="translate(704,632)"
     d="m0 0 2 3 9 27-2 2-10-30z"
     fill="#EFFED7"
     id="path250" />
  <path
     transform="translate(719,193)"
     d="m0 0h2l5 12-2 6-2-2-3-8z"
     fill="#F0FEDA"
     id="path252" />
  <path
     transform="translate(574,834)"
     d="M 0,0 1.1272918,0.93268084 2,2 1.065687,2.8606111 0,4 -1.2710417,5.3377663 -4,8 -8,12 -8.8495447,12.85857 -10,14 -10.916757,14.905671 -12,16 -17,20 -19.372004,18.420383 -14,13 -13.006023,12.063967 -12,11 -7,6 Z"
     fill="#edfed3"
     id="path254"
     sodipodi:nodetypes="ccccccccccccccccccc" />
  <path
     transform="translate(873,653)"
     d="m0 0 11 1v1l-13 1-8 7-7 7-2-2 12-12z"
     fill="#EEFED6"
     id="path256" />
  <path
     transform="translate(559,258)"
     d="m0 0h2l1 5v24h-2z"
     fill="#EFFED7"
     id="path258" />
  <path
     transform="translate(747,723)"
     d="M 0,0 1,4 -7.9347266,13.661764 -12,13 v -2 l 5,-5 z"
     fill="#f0fedb"
     id="path260"
     sodipodi:nodetypes="ccccccc" />
  <path
     transform="translate(487,294)"
     d="M 2,3 4,2 17,15 48.815341,48.013783 46.469995,48.979695 19,21 13,15 10.637329,12.773536 9,11 Z"
     fill="#edfed3"
     id="path262"
     sodipodi:nodetypes="ccccccccccc" />
  <path
     transform="translate(710,865)"
     d="m0 0h3l2 5-2 5-3 1-1-2h-2v-8z"
     fill="#9AB369"
     id="path264"
     style="fill:#000000;fill-opacity:0" />
  <path
     transform="translate(665,579)"
     d="M 1.670601,1.0263924 4,0 3,3 -18,12 -23.334436,15.123686 -22.43574,11.148368 -18,9 -2,2 h 2 z"
     fill="#f0fed9"
     id="path266"
     sodipodi:nodetypes="cccccccccc" />
  <path
     transform="translate(796,382)"
     d="m 0,2 1,1 v 0 l 2,2 v 1 0 0 0 c -0.9899393,6.915867 -5,5 -9,4 l 0.8411701,-5.7530881 z"
     fill="#daedba"
     id="path268"
     sodipodi:nodetypes="ccccccccccc"
     style="fill:#adc87a;fill-opacity:1" />
  <path
     transform="translate(1468,912)"
     d="m0 0 6 1 5 5 13 10 1 2-8-4v-2l-5-2-12-9z"
     fill="#9AB369"
     id="path270" />
  <path
     transform="translate(641,909)"
     d="m0 0 15 1 15 3 2 2-12-1-20-4z"
     fill="#9AB369"
     id="path272" />
  <path
     transform="translate(701,856)"
     d="m0 0h3l-1 9-2 7-4-3 3-12z"
     fill="#F0FEDB"
     id="path274" />
  <path
     transform="translate(521,90)"
     d="m0 0 19 1 4 3 2 8-3-1-2-5-4-3-16-2z"
     fill="#EBFCD1"
     id="path276" />
  <path
     transform="translate(688,445)"
     d="m0 0 4 3 2 16-1 7h-1l-3-22z"
     fill="#EFFED9"
     id="path278" />
  <path
     transform="translate(733,412)"
     d="m0 0h19l4 3h-21l-6-1z"
     fill="#EDFED3"
     id="path280" />
  <path
     transform="translate(941,500)"
     d="m0 0h2l-2 4-12 10-4 2v-3l9-7z"
     fill="#EFFED9"
     id="path282" />
  <path
     transform="translate(825,408)"
     d="m0 0 2 2-1 1v7l2 10-2 2-4-15 1-5z"
     fill="#EFFED8"
     id="path284" />
  <path
     transform="translate(692,410)"
     d="m0 0 3 1-7 7-5 3-7 1-2-2 9-2z"
     fill="#EFFED7"
     id="path286" />
  <path
     transform="translate(853,669)"
     d="m0 0h2l-2 4-7 8-6 6-2-1 11-12z"
     fill="#F0FEDB"
     id="path288" />
  <path
     transform="translate(506,443)"
     d="M 0,0 H 2 L 4,4 V 9 9 L 2,7 -2,8 V 6 L -5,5 Z"
     fill="#f1fedd"
     id="path290"
     sodipodi:nodetypes="cccccccccc" />
  <path
     transform="translate(825,387)"
     d="m0 0h7l12 4 1 2-3 1-6-3-13-1v-2z"
     fill="#EDFED3"
     id="path292" />
  <path
     transform="translate(1525,968)"
     d="m0 0h2l3 3 1-2 6 1-5 5-6 4-3-1 2-2 3-1-2-4z"
     fill="#ADC87A"
     id="path294" />
  <path
     transform="translate(785,644)"
     d="M -0.3417931,-1.6396836 3,4 9,20 8,23 2,10 -1.8137353,-0.12218816 Z"
     fill="#f0feda"
     id="path296"
     sodipodi:nodetypes="ccccccc" />
  <path
     transform="translate(779,386)"
     d="m0 0h9l-2 2 3 3-10-1-4 4v-3l2-4z"
     fill="#EDFED4"
     id="path298" />
  <path
     transform="translate(731,753)"
     d="M 0,0 H 1 L -2,13 -5,11 -3,1 0,2 Z"
     fill="#effed7"
     id="path300"
     sodipodi:nodetypes="ccccccc" />
  <path
     transform="translate(419,223)"
     d="M 0,0 3.6088148,1.1834282 5,7 1,8 0.20246358,6.8729876 Z"
     fill="#f1fedc"
     id="path302"
     sodipodi:nodetypes="cccccc" />
  <path
     transform="translate(1415,873)"
     d="m0 0 5 2 12 9h-3l-9-6z"
     fill="#9AB369"
     id="path304" />
  <path
     transform="translate(277,287)"
     d="M 0,0 2.4939986,0.84759808 8,11 7,15 4.6051399,11.81808 2,5 Z"
     fill="#eafcd0"
     id="path306"
     sodipodi:nodetypes="ccccccc" />
  <path
     transform="translate(749,529)"
     d="m0 0h5l3 9v3h-2l-3-8v-3z"
     fill="#F2FEDE"
     id="path308" />
  <path
     transform="translate(778,321)"
     d="m0 0 3 4-6 4v-3h-4l1-3v2z"
     fill="#EDFED3"
     id="path310" />
  <path
     transform="translate(1506,944)"
     d="m0 0h3l1 6-2 3-2-2z"
     fill="#EFFED7"
     id="path312"
     style="fill:#acc779;fill-opacity:1" />
  <path
     transform="translate(642,532)"
     d="M 0,0 0.59492001,2.4275818 4,10 5,14 H 3 L -0.26873407,6.2374258 -1,1 Z"
     fill="#f2fedd"
     id="path314"
     sodipodi:nodetypes="cccccccc" />
  <path
     transform="translate(1041,497)"
     d="m0 0 8 6 4 4-2 1-9-7z"
     fill="#9AB369"
     id="path316" />
  <path
     transform="translate(845,591)"
     d="m0 0 4 2-2 5-1 2h-2z"
     fill="#ADC87A"
     id="path318" />
  <path
     transform="translate(841,434)"
     d="m0 0h3v2l-10 3h-3v-2z"
     fill="#EFFED7"
     id="path320" />
  <path
     transform="translate(720,201)"
     d="m0 0 2 1v2h2l1-2 1 5-3 4z"
     fill="#EDFED3"
     id="path322" />
  <path
     transform="translate(670,420)"
     d="m0 0 6 1-2 3 2 4-4-2-3-3z"
     fill="#F2FEDE"
     id="path324" />
  <path
     style="fill:#edfdd3;stroke:#fffffe;stroke-width:0;stroke-linecap:butt;stroke-linejoin:miter;stroke-opacity:1;fill-opacity:1;stroke-miterlimit:4;stroke-dasharray:none"
     d="m 944,669 8,5 v -2 l -5,-4 z"
     id="path459" />
  <path
     style="fill:#edfed3;stroke:#000000;stroke-width:0;stroke-linecap:butt;stroke-linejoin:miter;stroke-opacity:1;stroke-miterlimit:4;stroke-dasharray:none;fill-opacity:1"
     d="m 574,834 25,-22 2,1 -25,23 z"
     id="path22382" />
</svg>
